<svg width="138" height="30" viewBox="0 0 138 30" fill="none" xmlns="http://www.w3.org/2000/svg">
<path d="M12.3105 30C4.05563 30 0 23.5358 0 15.3215C0 6.67859 4.5581 0.28573 12.131 0.28573C14.6792 0.28573 16.6891 0.964301 18.5913 2.57145C19.1297 3.07145 19.5603 2.92859 19.6321 2.25002L19.8116 0.607159H20.673L21.1395 10.7143H20.3141C19.3091 4.9643 16.8327 1.85716 12.7411 1.85716C7.32167 1.85716 4.37865 7.35716 4.37865 14.8572C4.37865 22.4643 7.28578 28.2858 12.8488 28.2858C15.5406 28.2858 17.4069 26.7858 18.3042 25.3929V18.3572C18.3042 16.1786 17.4428 15.5357 11.5926 15.5357V14.6786H24.2979V15.5357C22.3598 15.5357 22.0727 16.0715 22.0727 18.3572V25.2143C20.0269 28.1072 16.5814 30 12.3105 30Z" fill="black"/>
<path d="M29.278 6.35715C27.9142 6.35715 26.9451 5.42858 26.9451 4.17858C26.9451 2.89286 27.9142 1.96429 29.278 1.96429C30.606 1.96429 31.575 2.89286 31.575 4.17858C31.575 5.42858 30.606 6.35715 29.278 6.35715ZM31.2879 10.3214V25.75C31.2879 28.0357 31.6468 28.5715 33.8361 28.5715V29.4286H25.2942V28.5715C27.4835 28.5715 27.8424 28.0357 27.8424 25.75V14.75C27.8424 12.3572 27.8065 11.8572 25.7249 12.7143L25.4018 11.8929L30.6778 9.78573L31.2879 10.3214Z" fill="black"/>
<path d="M44.5846 21.4286H45.5896C45.5896 27 44.477 30.0001 40.9597 30.0001C38.1602 30.0001 36.6887 28.3215 36.6887 23.3215V11.9643H34.1764V10.6429C36.7964 10.5715 38.4474 8.64289 38.8063 5.28574H40.0983V10.5H44.4052V11.9643H40.1701V22.3929C40.1701 25.5715 40.4931 27.6786 42.18 27.6786C43.795 27.6786 44.5846 25.6786 44.5846 21.4286Z" fill="black"/>
<path d="M57.0499 29.4286H46.1751V28.5715C49.5129 28.5715 49.9795 27.9286 49.9795 25.75V4.53574C49.9795 2.35717 49.5129 1.71431 46.1751 1.71431V0.857167H57.4088C62.6488 0.857167 66.1302 3.14288 66.1302 7.9286C66.1302 11.8929 63.5102 14.2143 60.0288 14.6429V14.8215C64.5151 15.1072 67.4582 17.8929 67.4582 21.75C67.4582 27.3929 62.7924 29.4286 57.0499 29.4286ZM53.9633 3.4286V13.9286C54.8606 14.0715 55.7937 14.0715 56.6551 14.0715C59.5981 14.0715 62.1822 12.2143 62.1822 8.07146C62.1822 4.00003 59.5622 2.32145 56.7269 2.32145C56.045 2.32145 55.2913 2.35717 54.6811 2.50003C54.1786 2.60717 53.9633 2.9286 53.9633 3.4286ZM53.9633 15.6786V26.8572C53.9633 27.7143 54.8965 27.9643 56.5833 27.9643C59.957 27.9643 63.4384 26.7143 63.4384 21.7858C63.4384 16.8572 59.4546 15.5358 56.691 15.5358C55.7578 15.5358 54.8606 15.5358 53.9633 15.6786Z" fill="black"/>
<path d="M80.579 30.0001L79.8612 29.3929L79.7894 26.3572L79.6818 26.3215C78.4615 28.25 76.7387 30.0001 74.1905 30.0001C71.7141 30.0001 70.2784 28.0001 70.2784 24.8572V14.7857C70.2784 12.4643 70.1708 12.0357 67.9814 12.7143L67.7302 11.9286L73.2574 10.1429L73.7598 10.6072V24.5C73.7598 26.6072 74.4059 27.6072 75.7697 27.6072C77.2053 27.6072 78.6409 26.3929 79.7894 24.8572V14.7857C79.7894 12.4643 79.7177 12.0357 77.4924 12.7143L77.2412 11.9286L82.8042 10.1429L83.2708 10.6072V25.1786C83.2708 27.5715 83.3426 28.0358 85.5678 27.2143L85.8908 28.0358L80.579 30.0001Z" fill="black"/>
<path d="M96.082 21.4286H97.0869C97.0869 27 95.9743 30.0001 92.4571 30.0001C89.6576 30.0001 88.1861 28.3215 88.1861 23.3215V11.9643H85.6737V10.6429C88.2938 10.5715 89.9447 8.64289 90.3036 5.28574H91.5957V10.5H95.9025V11.9643H91.6675V22.3929C91.6675 25.5715 91.9905 27.6786 93.6773 27.6786C95.2924 27.6786 96.082 25.6786 96.082 21.4286Z" fill="black"/>
<path d="M103.473 0.5V25.75C103.473 28.0357 103.796 28.5714 105.985 28.5714V29.4286H97.4433V28.5714C99.6326 28.5714 99.9915 28.0357 99.9915 25.75V5.10714C99.9915 2.82143 99.9915 2.35714 97.8381 3.42857L97.4792 2.64286L102.935 0L103.473 0.5Z" fill="black"/>
<path d="M119.048 21.7857H119.909C119.155 27.5357 116.715 30 113.341 30C109.285 30 106.737 26.1786 106.737 20.2857C106.737 14.6429 109.25 9.85714 113.521 9.85714C117.72 9.85714 119.694 13.7857 119.694 19H110.219V19.0714C110.219 23.9286 111.726 27.3571 114.705 27.3571C116.32 27.3571 118.186 26.1071 119.048 21.7857ZM113.521 11.3571C111.367 11.3571 110.47 13.9643 110.255 17.5357H116.248C116.248 14.1071 115.638 11.3571 113.521 11.3571Z" fill="black"/>
<path d="M131.728 9.85714C132.984 9.85714 133.666 10.5714 133.666 11.75C133.666 13.1429 132.841 14.0357 131.908 14.0357C131.262 14.0357 130.974 13.7857 130.508 13.2857C130.041 12.8214 129.862 12.6786 129.431 12.6786C128.606 12.6786 127.637 13.8571 126.883 16.0357V25.5357C126.883 27.9643 127.421 28.5357 130.687 28.5357V29.4286H120.997V28.5714C123.079 28.5714 123.437 28.0357 123.437 25.75V14.75C123.437 12.3571 123.437 11.8571 121.284 12.75L120.925 11.9286L123.796 10.7857L126.237 9.78572L126.883 10.3214V13.75H126.991C127.996 11.8571 129.754 9.85714 131.728 9.85714Z" fill="black"/>
</svg>
