<svg width="138" height="30" viewBox="0 0 138 30" fill="none" xmlns="http://www.w3.org/2000/svg">
<path d="M12.3105 30C4.05563 30 0 23.5357 0 15.3214C0 6.67857 4.5581 0.285715 12.131 0.285715C14.6792 0.285715 16.6891 0.964286 18.5913 2.57143C19.1297 3.07143 19.5603 2.92857 19.6321 2.25L19.8116 0.607144H20.673L21.1395 10.7143H20.3141C19.3091 4.96428 16.8327 1.85714 12.7411 1.85714C7.32167 1.85714 4.37865 7.35714 4.37865 14.8571C4.37865 22.4643 7.28578 28.2857 12.8488 28.2857C15.5406 28.2857 17.4069 26.7857 18.3042 25.3929V18.3571C18.3042 16.1786 17.4428 15.5357 11.5926 15.5357V14.6786H24.2979V15.5357C22.3598 15.5357 22.0727 16.0714 22.0727 18.3571V25.2143C20.0269 28.1071 16.5814 30 12.3105 30Z" fill="black"/>
<path d="M29.5982 6.35714C28.2344 6.35714 27.2653 5.42857 27.2653 4.17857C27.2653 2.89286 28.2344 1.96429 29.5982 1.96429C30.9262 1.96429 31.8952 2.89286 31.8952 4.17857C31.8952 5.42857 30.9262 6.35714 29.5982 6.35714ZM31.6081 10.3214V25.75C31.6081 28.0357 31.967 28.5714 34.1563 28.5714V29.4286H25.6144V28.5714C27.8037 28.5714 28.1626 28.0357 28.1626 25.75V14.75C28.1626 12.3571 28.1267 11.8571 26.045 12.7143L25.722 11.8929L30.9979 9.78572L31.6081 10.3214Z" fill="black"/>
<path d="M45.5075 21.4286H46.5125C46.5125 27 45.3999 30 41.8826 30C39.0831 30 37.6116 28.3214 37.6116 23.3214V11.9643H35.0993V10.6429C37.7193 10.5714 39.3702 8.64286 39.7292 5.28571H41.0212V10.5H45.3281V11.9643H41.093V22.3929C41.093 25.5714 41.416 27.6786 43.1029 27.6786C44.7179 27.6786 45.5075 25.6786 45.5075 21.4286Z" fill="black"/>
<path d="M58.6337 29.4286H47.7588V28.5714C51.0966 28.5714 51.5632 27.9286 51.5632 25.75V4.53572C51.5632 2.35714 51.0966 1.71429 47.7588 1.71429V0.857145H58.9926C64.2326 0.857145 67.714 3.14286 67.714 7.92857C67.714 11.8929 65.094 14.2143 61.6126 14.6429V14.8214C66.0989 15.1071 69.0419 17.8929 69.0419 21.75C69.0419 27.3929 64.3761 29.4286 58.6337 29.4286ZM55.5471 3.42857V13.9286C56.4443 14.0714 57.3775 14.0714 58.2389 14.0714C61.1819 14.0714 63.766 12.2143 63.766 8.07143C63.766 4 61.146 2.32143 58.3106 2.32143C57.6287 2.32143 56.875 2.35714 56.2649 2.5C55.7624 2.60714 55.5471 2.92857 55.5471 3.42857ZM55.5471 15.6786V26.8571C55.5471 27.7143 56.4802 27.9643 58.1671 27.9643C61.5408 27.9643 65.0222 26.7143 65.0222 21.7857C65.0222 16.8571 61.0383 15.5357 58.2748 15.5357C57.3416 15.5357 56.4443 15.5357 55.5471 15.6786Z" fill="black"/>
<path d="M82.6102 30L81.8924 29.3929L81.8206 26.3571L81.713 26.3214C80.4927 28.25 78.7699 30 76.2217 30C73.7453 30 72.3096 28 72.3096 24.8571V14.7857C72.3096 12.4643 72.202 12.0357 70.0126 12.7143L69.7614 11.9286L75.2886 10.1429L75.791 10.6071V24.5C75.791 26.6071 76.4371 27.6071 77.8009 27.6071C79.2365 27.6071 80.6721 26.3929 81.8206 24.8571V14.7857C81.8206 12.4643 81.7489 12.0357 79.5236 12.7143L79.2724 11.9286L84.8354 10.1429L85.302 10.6071V25.1786C85.302 27.5714 85.3738 28.0357 87.599 27.2143L87.922 28.0357L82.6102 30Z" fill="black"/>
<path d="M98.7125 21.4286H99.7174C99.7174 27 98.6048 30 95.0875 30C92.2881 30 90.8165 28.3214 90.8165 23.3214V11.9643H88.3042V10.6429C90.9242 10.5714 92.5752 8.64286 92.9341 5.28571H94.2261V10.5H98.533V11.9643H94.2979V22.3929C94.2979 25.5714 94.6209 27.6786 96.3078 27.6786C97.9229 27.6786 98.7125 25.6786 98.7125 21.4286Z" fill="black"/>
<path d="M106.679 0.5V25.75C106.679 28.0357 107.002 28.5714 109.191 28.5714V29.4286H100.649V28.5714C102.838 28.5714 103.197 28.0357 103.197 25.75V5.10714C103.197 2.82143 103.197 2.35714 101.044 3.42857L100.685 2.64286L106.14 0L106.679 0.5Z" fill="black"/>
<path d="M122.784 21.7857H123.645C122.891 27.5357 120.451 30 117.077 30C113.021 30 110.473 26.1786 110.473 20.2857C110.473 14.6429 112.985 9.85714 117.256 9.85714C121.456 9.85714 123.43 13.7857 123.43 19H113.954V19.0714C113.954 23.9286 115.462 27.3571 118.441 27.3571C120.056 27.3571 121.922 26.1071 122.784 21.7857ZM117.256 11.3571C115.103 11.3571 114.206 13.9643 113.99 17.5357H119.984C119.984 14.1071 119.374 11.3571 117.256 11.3571Z" fill="black"/>
<path d="M136.062 9.85714C137.318 9.85714 138 10.5714 138 11.75C138 13.1429 137.175 14.0357 136.241 14.0357C135.595 14.0357 135.308 13.7857 134.842 13.2857C134.375 12.8214 134.196 12.6786 133.765 12.6786C132.939 12.6786 131.97 13.8571 131.217 16.0357V25.5357C131.217 27.9643 131.755 28.5357 135.021 28.5357V29.4286H125.331V28.5714C127.412 28.5714 127.771 28.0357 127.771 25.75V14.75C127.771 12.3571 127.771 11.8571 125.618 12.75L125.259 11.9286L128.13 10.7857L130.571 9.78572L131.217 10.3214V13.75H131.324C132.329 11.8571 134.088 9.85714 136.062 9.85714Z" fill="black"/>
</svg>
