<svg width="50" height="50" viewBox="0 0 50 50" fill="none" xmlns="http://www.w3.org/2000/svg">
<path d="M0 19.0738C0 11.2424 0 7.32673 1.94864 4.55409C2.66017 3.54168 3.54168 2.66017 4.55409 1.94864C7.32673 0 11.2424 0 19.0738 0H30.9262C38.7576 0 42.6733 0 45.4459 1.94864C46.4583 2.66017 47.3398 3.54168 48.0514 4.55409C50 7.32673 50 11.2424 50 19.0738V30.9262C50 38.7576 50 42.6733 48.0514 45.4459C47.3398 46.4583 46.4583 47.3398 45.4459 48.0514C42.6733 50 38.7576 50 30.9262 50H19.0738C11.2424 50 7.32673 50 4.55409 48.0514C3.54168 47.3398 2.66017 46.4583 1.94864 45.4459C0 42.6733 0 38.7576 0 30.9262V19.0738Z" fill="#93EDE9"/>
<path d="M21.4014 26.6307L39.4103 35.8052C40.6001 36.4113 42 35.5298 42 34.1744V15.8256C42 14.4702 40.6001 13.5887 39.4103 14.1948L21.4014 23.3693C20.0825 24.0412 20.0825 25.9588 21.4014 26.6307Z" fill="url(#paint0_radial_170_35)"/>
<path d="M28.5986 26.6307L10.5897 35.8052C9.39992 36.4113 8 35.5298 8 34.1744V15.8256C8 14.4702 9.39992 13.5887 10.5897 14.1948L28.5986 23.3693C29.9175 24.0412 29.9175 25.9588 28.5986 26.6307Z" fill="black"/>
<defs>
<radialGradient id="paint0_radial_170_35" cx="0" cy="0" r="1" gradientUnits="userSpaceOnUse" gradientTransform="translate(25.2658 25) rotate(-179.999) scale(16.7654 17.6335)">
<stop stop-opacity="0"/>
<stop offset="1"/>
</radialGradient>
</defs>
</svg>
