<svg width="50" height="50" viewBox="0 0 50 50" fill="none" xmlns="http://www.w3.org/2000/svg">
<path d="M0 19.0738C0 11.2424 0 7.32673 1.94864 4.55409C2.66017 3.54168 3.54168 2.66017 4.55409 1.94864C7.32673 0 11.2424 0 19.0738 0H30.9262C38.7576 0 42.6733 0 45.4459 1.94864C46.4583 2.66017 47.3398 3.54168 48.0514 4.55409C50 7.32673 50 11.2424 50 19.0738V30.9262C50 38.7576 50 42.6733 48.0514 45.4459C47.3398 46.4583 46.4583 47.3398 45.4459 48.0514C42.6733 50 38.7576 50 30.9262 50H19.0738C11.2424 50 7.32673 50 4.55409 48.0514C3.54168 47.3398 2.66017 46.4583 1.94864 45.4459C0 42.6733 0 38.7576 0 30.9262V19.0738Z" fill="#93EDE9"/>
<path d="M27.0095 20.5122L39.4102 14.1948C40.6001 13.5887 42 14.4702 42 15.8256V34.1744C42 35.5298 40.6001 36.4113 39.4102 35.8052L27.0095 29.4878L29.3955 28.2723C32.0381 26.9261 32.0381 23.0739 29.3956 21.7277L27.0095 20.5122Z" fill="black"/>
<path d="M28.5989 26.6307L10.5898 35.8052C9.39994 36.4113 8 35.5298 8 34.1744V15.8256C8 14.4702 9.39994 13.5887 10.5897 14.1948L28.5989 23.3693C29.9178 24.0412 29.9178 25.9588 28.5989 26.6307Z" fill="black"/>
</svg>
