<svg width="198" height="30" viewBox="0 0 198 30" fill="none" xmlns="http://www.w3.org/2000/svg">
<path d="M72.3105 30C64.0556 30 60 23.5357 60 15.3214C60 6.67857 64.5581 0.285715 72.131 0.285715C74.6792 0.285715 76.6891 0.964286 78.5913 2.57143C79.1297 3.07143 79.5603 2.92857 79.6321 2.25L79.8116 0.607144H80.673L81.1395 10.7143H80.3141C79.3091 4.96428 76.8327 1.85714 72.7411 1.85714C67.3217 1.85714 64.3786 7.35714 64.3786 14.8571C64.3786 22.4643 67.2858 28.2857 72.8488 28.2857C75.5406 28.2857 77.4069 26.7857 78.3042 25.3929V18.3571C78.3042 16.1786 77.4428 15.5357 71.5926 15.5357V14.6786H84.2979V15.5357C82.3598 15.5357 82.0727 16.0714 82.0727 18.3571V25.2143C80.0269 28.1071 76.5814 30 72.3105 30Z" fill="white"/>
<path d="M89.5982 6.35714C88.2344 6.35714 87.2653 5.42857 87.2653 4.17857C87.2653 2.89286 88.2344 1.96429 89.5982 1.96429C90.9262 1.96429 91.8952 2.89286 91.8952 4.17857C91.8952 5.42857 90.9262 6.35714 89.5982 6.35714ZM91.6081 10.3214V25.75C91.6081 28.0357 91.967 28.5714 94.1563 28.5714V29.4286H85.6144V28.5714C87.8037 28.5714 88.1626 28.0357 88.1626 25.75V14.75C88.1626 12.3571 88.1267 11.8571 86.045 12.7143L85.722 11.8929L90.9979 9.78572L91.6081 10.3214Z" fill="white"/>
<path d="M105.508 21.4286H106.512C106.512 27 105.4 30 101.883 30C99.0831 30 97.6116 28.3214 97.6116 23.3214V11.9643H95.0993V10.6429C97.7193 10.5714 99.3702 8.64286 99.7292 5.28571H101.021V10.5H105.328V11.9643H101.093V22.3929C101.093 25.5714 101.416 27.6786 103.103 27.6786C104.718 27.6786 105.508 25.6786 105.508 21.4286Z" fill="white"/>
<path d="M118.634 29.4286H107.759V28.5714C111.097 28.5714 111.563 27.9286 111.563 25.75V4.53572C111.563 2.35714 111.097 1.71429 107.759 1.71429V0.857145H118.993C124.233 0.857145 127.714 3.14286 127.714 7.92857C127.714 11.8929 125.094 14.2143 121.613 14.6429V14.8214C126.099 15.1071 129.042 17.8929 129.042 21.75C129.042 27.3929 124.376 29.4286 118.634 29.4286ZM115.547 3.42857V13.9286C116.444 14.0714 117.377 14.0714 118.239 14.0714C121.182 14.0714 123.766 12.2143 123.766 8.07143C123.766 4 121.146 2.32143 118.311 2.32143C117.629 2.32143 116.875 2.35714 116.265 2.5C115.762 2.60714 115.547 2.92857 115.547 3.42857ZM115.547 15.6786V26.8571C115.547 27.7143 116.48 27.9643 118.167 27.9643C121.541 27.9643 125.022 26.7143 125.022 21.7857C125.022 16.8571 121.038 15.5357 118.275 15.5357C117.342 15.5357 116.444 15.5357 115.547 15.6786Z" fill="white"/>
<path d="M142.61 30L141.892 29.3929L141.821 26.3571L141.713 26.3214C140.493 28.25 138.77 30 136.222 30C133.745 30 132.31 28 132.31 24.8571V14.7857C132.31 12.4643 132.202 12.0357 130.013 12.7143L129.761 11.9286L135.289 10.1429L135.791 10.6071V24.5C135.791 26.6071 136.437 27.6071 137.801 27.6071C139.237 27.6071 140.672 26.3929 141.821 24.8571V14.7857C141.821 12.4643 141.749 12.0357 139.524 12.7143L139.272 11.9286L144.835 10.1429L145.302 10.6071V25.1786C145.302 27.5714 145.374 28.0357 147.599 27.2143L147.922 28.0357L142.61 30Z" fill="white"/>
<path d="M158.712 21.4286H159.717C159.717 27 158.605 30 155.088 30C152.288 30 150.817 28.3214 150.817 23.3214V11.9643H148.304V10.6429C150.924 10.5714 152.575 8.64286 152.934 5.28571H154.226V10.5H158.533V11.9643H154.298V22.3929C154.298 25.5714 154.621 27.6786 156.308 27.6786C157.923 27.6786 158.712 25.6786 158.712 21.4286Z" fill="white"/>
<path d="M166.679 0.5V25.75C166.679 28.0357 167.002 28.5714 169.191 28.5714V29.4286H160.649V28.5714C162.838 28.5714 163.197 28.0357 163.197 25.75V5.10714C163.197 2.82143 163.197 2.35714 161.044 3.42857L160.685 2.64286L166.14 0L166.679 0.5Z" fill="white"/>
<path d="M182.784 21.7857H183.645C182.891 27.5357 180.451 30 177.077 30C173.021 30 170.473 26.1786 170.473 20.2857C170.473 14.6429 172.985 9.85714 177.256 9.85714C181.456 9.85714 183.43 13.7857 183.43 19H173.954V19.0714C173.954 23.9286 175.462 27.3571 178.441 27.3571C180.056 27.3571 181.922 26.1071 182.784 21.7857ZM177.256 11.3571C175.103 11.3571 174.206 13.9643 173.99 17.5357H179.984C179.984 14.1071 179.374 11.3571 177.256 11.3571Z" fill="white"/>
<path d="M196.062 9.85714C197.318 9.85714 198 10.5714 198 11.75C198 13.1429 197.175 14.0357 196.241 14.0357C195.595 14.0357 195.308 13.7857 194.842 13.2857C194.375 12.8214 194.196 12.6786 193.765 12.6786C192.939 12.6786 191.97 13.8571 191.217 16.0357V25.5357C191.217 27.9643 191.755 28.5357 195.021 28.5357V29.4286H185.331V28.5714C187.412 28.5714 187.771 28.0357 187.771 25.75V14.75C187.771 12.3571 187.771 11.8571 185.618 12.75L185.259 11.9286L188.13 10.7857L190.571 9.78572L191.217 10.3214V13.75H191.324C192.329 11.8571 194.088 9.85714 196.062 9.85714Z" fill="white"/>
<path d="M18.1313 17.2237L42.4963 29.7343C44.106 30.5609 46 29.3588 46 27.5106V2.48942C46 0.641212 44.106 -0.560857 42.4963 0.265683L18.1313 12.7763C16.3469 13.6925 16.3469 16.3075 18.1313 17.2237Z" fill="url(#paint0_radial_175_82)"/>
<path d="M27.8687 17.2237L3.50375 29.7343C1.89401 30.5609 0 29.3588 0 27.5106V2.48942C0 0.641212 1.89401 -0.560857 3.50373 0.265683L27.8687 12.7763C29.6531 13.6925 29.6531 16.3075 27.8687 17.2237Z" fill="#93EDE9"/>
<defs>
<radialGradient id="paint0_radial_175_82" cx="0" cy="0" r="1" gradientUnits="userSpaceOnUse" gradientTransform="translate(23.3597 15) rotate(-179.999) scale(22.6826 24.0457)">
<stop stop-color="#86E1DC" stop-opacity="0"/>
<stop offset="1" stop-color="#93EDE9"/>
</radialGradient>
</defs>
</svg>
