<svg width="206" height="54" viewBox="0 0 206 54" fill="none" xmlns="http://www.w3.org/2000/svg">
<path d="M76.3105 42C68.0556 42 64 35.5357 64 27.3214C64 18.6786 68.5581 12.2857 76.131 12.2857C78.6792 12.2857 80.6891 12.9643 82.5913 14.5714C83.1297 15.0714 83.5603 14.9286 83.6321 14.25L83.8116 12.6071H84.673L85.1395 22.7143H84.3141C83.3091 16.9643 80.8327 13.8571 76.7411 13.8571C71.3217 13.8571 68.3786 19.3571 68.3786 26.8571C68.3786 34.4643 71.2858 40.2857 76.8488 40.2857C79.5406 40.2857 81.4069 38.7857 82.3042 37.3929V30.3571C82.3042 28.1786 81.4428 27.5357 75.5926 27.5357V26.6786H88.2979V27.5357C86.3598 27.5357 86.0727 28.0714 86.0727 30.3571V37.2143C84.0269 40.1071 80.5814 42 76.3105 42Z" fill="white"/>
<path d="M93.5982 18.3571C92.2344 18.3571 91.2653 17.4286 91.2653 16.1786C91.2653 14.8929 92.2344 13.9643 93.5982 13.9643C94.9262 13.9643 95.8952 14.8929 95.8952 16.1786C95.8952 17.4286 94.9262 18.3571 93.5982 18.3571ZM95.6081 22.3214V37.75C95.6081 40.0357 95.967 40.5714 98.1563 40.5714V41.4286H89.6144V40.5714C91.8037 40.5714 92.1626 40.0357 92.1626 37.75V26.75C92.1626 24.3571 92.1267 23.8571 90.045 24.7143L89.722 23.8929L94.9979 21.7857L95.6081 22.3214Z" fill="white"/>
<path d="M109.508 33.4286H110.512C110.512 39 109.4 42 105.883 42C103.083 42 101.612 40.3214 101.612 35.3214V23.9643H99.0993V22.6429C101.719 22.5714 103.37 20.6429 103.729 17.2857H105.021V22.5H109.328V23.9643H105.093V34.3929C105.093 37.5714 105.416 39.6786 107.103 39.6786C108.718 39.6786 109.508 37.6786 109.508 33.4286Z" fill="white"/>
<path d="M122.634 41.4286H111.759V40.5714C115.097 40.5714 115.563 39.9286 115.563 37.75V16.5357C115.563 14.3571 115.097 13.7143 111.759 13.7143V12.8571H122.993C128.233 12.8571 131.714 15.1429 131.714 19.9286C131.714 23.8929 129.094 26.2143 125.613 26.6429V26.8214C130.099 27.1071 133.042 29.8929 133.042 33.75C133.042 39.3929 128.376 41.4286 122.634 41.4286ZM119.547 15.4286V25.9286C120.444 26.0714 121.377 26.0714 122.239 26.0714C125.182 26.0714 127.766 24.2143 127.766 20.0714C127.766 16 125.146 14.3214 122.311 14.3214C121.629 14.3214 120.875 14.3571 120.265 14.5C119.762 14.6071 119.547 14.9286 119.547 15.4286ZM119.547 27.6786V38.8571C119.547 39.7143 120.48 39.9643 122.167 39.9643C125.541 39.9643 129.022 38.7143 129.022 33.7857C129.022 28.8571 125.038 27.5357 122.275 27.5357C121.342 27.5357 120.444 27.5357 119.547 27.6786Z" fill="white"/>
<path d="M146.61 42L145.892 41.3929L145.821 38.3571L145.713 38.3214C144.493 40.25 142.77 42 140.222 42C137.745 42 136.31 40 136.31 36.8571V26.7857C136.31 24.4643 136.202 24.0357 134.013 24.7143L133.761 23.9286L139.289 22.1429L139.791 22.6071V36.5C139.791 38.6071 140.437 39.6071 141.801 39.6071C143.237 39.6071 144.672 38.3929 145.821 36.8571V26.7857C145.821 24.4643 145.749 24.0357 143.524 24.7143L143.272 23.9286L148.835 22.1429L149.302 22.6071V37.1786C149.302 39.5714 149.374 40.0357 151.599 39.2143L151.922 40.0357L146.61 42Z" fill="white"/>
<path d="M162.712 33.4286H163.717C163.717 39 162.605 42 159.088 42C156.288 42 154.817 40.3214 154.817 35.3214V23.9643H152.304V22.6429C154.924 22.5714 156.575 20.6429 156.934 17.2857H158.226V22.5H162.533V23.9643H158.298V34.3929C158.298 37.5714 158.621 39.6786 160.308 39.6786C161.923 39.6786 162.712 37.6786 162.712 33.4286Z" fill="white"/>
<path d="M170.679 12.5V37.75C170.679 40.0357 171.002 40.5714 173.191 40.5714V41.4286H164.649V40.5714C166.838 40.5714 167.197 40.0357 167.197 37.75V17.1071C167.197 14.8214 167.197 14.3571 165.044 15.4286L164.685 14.6429L170.14 12L170.679 12.5Z" fill="white"/>
<path d="M186.784 33.7857H187.645C186.891 39.5357 184.451 42 181.077 42C177.021 42 174.473 38.1786 174.473 32.2857C174.473 26.6429 176.985 21.8571 181.256 21.8571C185.456 21.8571 187.43 25.7857 187.43 31H177.954V31.0714C177.954 35.9286 179.462 39.3571 182.441 39.3571C184.056 39.3571 185.922 38.1071 186.784 33.7857ZM181.256 23.3571C179.103 23.3571 178.206 25.9643 177.99 29.5357H183.984C183.984 26.1071 183.374 23.3571 181.256 23.3571Z" fill="white"/>
<path d="M200.062 21.8571C201.318 21.8571 202 22.5714 202 23.75C202 25.1429 201.175 26.0357 200.241 26.0357C199.595 26.0357 199.308 25.7857 198.842 25.2857C198.375 24.8214 198.196 24.6786 197.765 24.6786C196.939 24.6786 195.97 25.8571 195.217 28.0357V37.5357C195.217 39.9643 195.755 40.5357 199.021 40.5357V41.4286H189.331V40.5714C191.412 40.5714 191.771 40.0357 191.771 37.75V26.75C191.771 24.3571 191.771 23.8571 189.618 24.75L189.259 23.9286L192.13 22.7857L194.571 21.7857L195.217 22.3214V25.75H195.324C196.329 23.8571 198.088 21.8571 200.062 21.8571Z" fill="white"/>
<path d="M0 21.0738C0 13.2424 0 9.32673 1.94864 6.55409C2.66017 5.54168 3.54168 4.66017 4.55409 3.94864C7.32673 2 11.2424 2 19.0738 2H30.9262C38.7576 2 42.6733 2 45.4459 3.94864C46.4583 4.66017 47.3398 5.54168 48.0514 6.55409C50 9.32673 50 13.2424 50 21.0738V32.9262C50 40.7576 50 44.6733 48.0514 47.4459C47.3398 48.4583 46.4583 49.3398 45.4459 50.0514C42.6733 52 38.7576 52 30.9262 52H19.0738C11.2424 52 7.32673 52 4.55409 50.0514C3.54168 49.3398 2.66017 48.4583 1.94864 47.4459C0 44.6733 0 40.7576 0 32.9262V21.0738Z" fill="#93EDE9"/>
<path d="M27.0095 22.5122L39.4102 16.1948C40.6001 15.5887 42 16.4702 42 17.8256V36.1744C42 37.5298 40.6001 38.4113 39.4102 37.8052L27.0095 31.4878L29.3955 30.2723C32.0381 28.9261 32.0381 25.0739 29.3956 23.7277L27.0095 22.5122Z" fill="black"/>
<path d="M28.5989 28.6307L10.5898 37.8052C9.39994 38.4113 8 37.5298 8 36.1744V17.8256C8 16.4702 9.39994 15.5887 10.5897 16.1948L28.5989 25.3693C29.9178 26.0412 29.9178 27.9588 28.5989 28.6307Z" fill="black"/>
</svg>
