<svg width="206" height="54" viewBox="0 0 206 54" fill="none" xmlns="http://www.w3.org/2000/svg">
<path d="M76.3105 42C68.0556 42 64 35.5358 64 27.3215C64 18.6786 68.5581 12.2857 76.131 12.2857C78.6792 12.2857 80.6891 12.9643 82.5913 14.5714C83.1297 15.0714 83.5603 14.9286 83.6321 14.25L83.8116 12.6072H84.673L85.1395 22.7143H84.3141C83.3091 16.9643 80.8327 13.8572 76.7411 13.8572C71.3217 13.8572 68.3786 19.3572 68.3786 26.8572C68.3786 34.4643 71.2858 40.2858 76.8488 40.2858C79.5406 40.2858 81.4069 38.7858 82.3042 37.3929V30.3572C82.3042 28.1786 81.4428 27.5357 75.5926 27.5357V26.6786H88.2979V27.5357C86.3598 27.5357 86.0727 28.0715 86.0727 30.3572V37.2143C84.0269 40.1072 80.5814 42 76.3105 42Z" fill="white"/>
<path d="M93.278 18.3572C91.9142 18.3572 90.9451 17.4286 90.9451 16.1786C90.9451 14.8929 91.9142 13.9643 93.278 13.9643C94.606 13.9643 95.575 14.8929 95.575 16.1786C95.575 17.4286 94.606 18.3572 93.278 18.3572ZM95.2879 22.3214V37.75C95.2879 40.0357 95.6468 40.5715 97.8361 40.5715V41.4286H89.2942V40.5715C91.4835 40.5715 91.8424 40.0357 91.8424 37.75V26.75C91.8424 24.3572 91.8065 23.8572 89.7249 24.7143L89.4018 23.8929L94.6778 21.7857L95.2879 22.3214Z" fill="white"/>
<path d="M108.585 33.4286H109.59C109.59 39 108.477 42.0001 104.96 42.0001C102.16 42.0001 100.689 40.3215 100.689 35.3215V23.9643H98.1764V22.6429C100.796 22.5715 102.447 20.6429 102.806 17.2857H104.098V22.5H108.405V23.9643H104.17V34.3929C104.17 37.5715 104.493 39.6786 106.18 39.6786C107.795 39.6786 108.585 37.6786 108.585 33.4286Z" fill="white"/>
<path d="M121.05 41.4286H110.175V40.5715C113.513 40.5715 113.979 39.9286 113.979 37.75V16.5357C113.979 14.3572 113.513 13.7143 110.175 13.7143V12.8572H121.409C126.649 12.8572 130.13 15.1429 130.13 19.9286C130.13 23.8929 127.51 26.2143 124.029 26.6429V26.8215C128.515 27.1072 131.458 29.8929 131.458 33.75C131.458 39.3929 126.792 41.4286 121.05 41.4286ZM117.963 15.4286V25.9286C118.861 26.0715 119.794 26.0715 120.655 26.0715C123.598 26.0715 126.182 24.2143 126.182 20.0715C126.182 16 123.562 14.3215 120.727 14.3215C120.045 14.3215 119.291 14.3572 118.681 14.5C118.179 14.6072 117.963 14.9286 117.963 15.4286ZM117.963 27.6786V38.8572C117.963 39.7143 118.896 39.9643 120.583 39.9643C123.957 39.9643 127.438 38.7143 127.438 33.7858C127.438 28.8572 123.455 27.5358 120.691 27.5358C119.758 27.5358 118.861 27.5358 117.963 27.6786Z" fill="white"/>
<path d="M144.579 42.0001L143.861 41.3929L143.789 38.3572L143.682 38.3215C142.461 40.25 140.739 42.0001 138.191 42.0001C135.714 42.0001 134.278 40.0001 134.278 36.8572V26.7857C134.278 24.4643 134.171 24.0357 131.981 24.7143L131.73 23.9286L137.257 22.1429L137.76 22.6072V36.5C137.76 38.6072 138.406 39.6072 139.77 39.6072C141.205 39.6072 142.641 38.3929 143.789 36.8572V26.7857C143.789 24.4643 143.718 24.0357 141.492 24.7143L141.241 23.9286L146.804 22.1429L147.271 22.6072V37.1786C147.271 39.5715 147.343 40.0358 149.568 39.2143L149.891 40.0358L144.579 42.0001Z" fill="white"/>
<path d="M160.082 33.4286H161.087C161.087 39 159.974 42.0001 156.457 42.0001C153.658 42.0001 152.186 40.3215 152.186 35.3215V23.9643H149.674V22.6429C152.294 22.5715 153.945 20.6429 154.304 17.2857H155.596V22.5H159.903V23.9643H155.667V34.3929C155.667 37.5715 155.99 39.6786 157.677 39.6786C159.292 39.6786 160.082 37.6786 160.082 33.4286Z" fill="white"/>
<path d="M167.473 12.5V37.75C167.473 40.0357 167.796 40.5714 169.985 40.5714V41.4286H161.443V40.5714C163.633 40.5714 163.992 40.0357 163.992 37.75V17.1071C163.992 14.8214 163.991 14.3571 161.838 15.4286L161.479 14.6429L166.935 12L167.473 12.5Z" fill="white"/>
<path d="M183.048 33.7857H183.909C183.155 39.5357 180.715 42 177.341 42C173.285 42 170.737 38.1786 170.737 32.2857C170.737 26.6429 173.25 21.8571 177.521 21.8571C181.72 21.8571 183.694 25.7857 183.694 31H174.219V31.0714C174.219 35.9286 175.726 39.3571 178.705 39.3571C180.32 39.3571 182.186 38.1071 183.048 33.7857ZM177.521 23.3571C175.367 23.3571 174.47 25.9643 174.255 29.5357H180.248C180.248 26.1071 179.638 23.3571 177.521 23.3571Z" fill="white"/>
<path d="M195.728 21.8571C196.984 21.8571 197.666 22.5714 197.666 23.75C197.666 25.1429 196.841 26.0357 195.908 26.0357C195.262 26.0357 194.974 25.7857 194.508 25.2857C194.041 24.8214 193.862 24.6786 193.431 24.6786C192.606 24.6786 191.637 25.8571 190.883 28.0357V37.5357C190.883 39.9643 191.421 40.5357 194.687 40.5357V41.4286H184.997V40.5714C187.079 40.5714 187.437 40.0357 187.437 37.75V26.75C187.437 24.3571 187.437 23.8571 185.284 24.75L184.925 23.9286L187.796 22.7857L190.237 21.7857L190.883 22.3214V25.75H190.991C191.996 23.8571 193.754 21.8571 195.728 21.8571Z" fill="white"/>
<path d="M0 21.0738C0 13.2424 0 9.32673 1.94864 6.55409C2.66017 5.54168 3.54168 4.66017 4.55409 3.94864C7.32673 2 11.2424 2 19.0738 2H30.9262C38.7576 2 42.6733 2 45.4459 3.94864C46.4583 4.66017 47.3398 5.54168 48.0514 6.55409C50 9.32673 50 13.2424 50 21.0738V32.9262C50 40.7576 50 44.6733 48.0514 47.4459C47.3398 48.4583 46.4583 49.3398 45.4459 50.0514C42.6733 52 38.7576 52 30.9262 52H19.0738C11.2424 52 7.32673 52 4.55409 50.0514C3.54168 49.3398 2.66017 48.4583 1.94864 47.4459C0 44.6733 0 40.7576 0 32.9262V21.0738Z" fill="#93EDE9"/>
<path d="M21.4014 28.6307L39.4103 37.8052C40.6001 38.4113 42 37.5298 42 36.1744V17.8256C42 16.4702 40.6001 15.5887 39.4103 16.1948L21.4014 25.3693C20.0825 26.0412 20.0825 27.9588 21.4014 28.6307Z" fill="url(#paint0_radial_175_129)"/>
<path d="M28.5986 28.6307L10.5897 37.8052C9.39992 38.4113 8 37.5298 8 36.1744V17.8256C8 16.4702 9.39992 15.5887 10.5897 16.1948L28.5986 25.3693C29.9175 26.0412 29.9175 27.9588 28.5986 28.6307Z" fill="black"/>
<defs>
<radialGradient id="paint0_radial_175_129" cx="0" cy="0" r="1" gradientUnits="userSpaceOnUse" gradientTransform="translate(25.2658 27) rotate(-179.999) scale(16.7654 17.6335)">
<stop stop-opacity="0"/>
<stop offset="1"/>
</radialGradient>
</defs>
</svg>
