<svg width="198" height="30" viewBox="0 0 198 30" fill="none" xmlns="http://www.w3.org/2000/svg">
<path d="M72.3105 30C64.0556 30 60 23.5358 60 15.3215C60 6.67859 64.5581 0.28573 72.131 0.28573C74.6792 0.28573 76.6891 0.964301 78.5913 2.57145C79.1297 3.07145 79.5603 2.92859 79.6321 2.25002L79.8116 0.607159H80.673L81.1395 10.7143H80.3141C79.3091 4.9643 76.8327 1.85716 72.7411 1.85716C67.3217 1.85716 64.3786 7.35716 64.3786 14.8572C64.3786 22.4643 67.2858 28.2858 72.8488 28.2858C75.5406 28.2858 77.4069 26.7858 78.3042 25.3929V18.3572C78.3042 16.1786 77.4428 15.5357 71.5926 15.5357V14.6786H84.2979V15.5357C82.3598 15.5357 82.0727 16.0715 82.0727 18.3572V25.2143C80.0269 28.1072 76.5814 30 72.3105 30Z" fill="black"/>
<path d="M89.278 6.35715C87.9142 6.35715 86.9451 5.42858 86.9451 4.17858C86.9451 2.89286 87.9142 1.96429 89.278 1.96429C90.606 1.96429 91.575 2.89286 91.575 4.17858C91.575 5.42858 90.606 6.35715 89.278 6.35715ZM91.2879 10.3214V25.75C91.2879 28.0357 91.6468 28.5715 93.8361 28.5715V29.4286H85.2942V28.5715C87.4835 28.5715 87.8424 28.0357 87.8424 25.75V14.75C87.8424 12.3572 87.8065 11.8572 85.7249 12.7143L85.4018 11.8929L90.6778 9.78573L91.2879 10.3214Z" fill="black"/>
<path d="M104.585 21.4286H105.59C105.59 27 104.477 30.0001 100.96 30.0001C98.1602 30.0001 96.6887 28.3215 96.6887 23.3215V11.9643H94.1764V10.6429C96.7964 10.5715 98.4474 8.64289 98.8063 5.28574H100.098V10.5H104.405V11.9643H100.17V22.3929C100.17 25.5715 100.493 27.6786 102.18 27.6786C103.795 27.6786 104.585 25.6786 104.585 21.4286Z" fill="black"/>
<path d="M117.05 29.4286H106.175V28.5715C109.513 28.5715 109.979 27.9286 109.979 25.75V4.53574C109.979 2.35717 109.513 1.71431 106.175 1.71431V0.857167H117.409C122.649 0.857167 126.13 3.14288 126.13 7.9286C126.13 11.8929 123.51 14.2143 120.029 14.6429V14.8215C124.515 15.1072 127.458 17.8929 127.458 21.75C127.458 27.3929 122.792 29.4286 117.05 29.4286ZM113.963 3.4286V13.9286C114.861 14.0715 115.794 14.0715 116.655 14.0715C119.598 14.0715 122.182 12.2143 122.182 8.07146C122.182 4.00003 119.562 2.32145 116.727 2.32145C116.045 2.32145 115.291 2.35717 114.681 2.50003C114.179 2.60717 113.963 2.9286 113.963 3.4286ZM113.963 15.6786V26.8572C113.963 27.7143 114.896 27.9643 116.583 27.9643C119.957 27.9643 123.438 26.7143 123.438 21.7858C123.438 16.8572 119.455 15.5358 116.691 15.5358C115.758 15.5358 114.861 15.5358 113.963 15.6786Z" fill="black"/>
<path d="M140.579 30.0001L139.861 29.3929L139.789 26.3572L139.682 26.3215C138.461 28.25 136.739 30.0001 134.191 30.0001C131.714 30.0001 130.278 28.0001 130.278 24.8572V14.7857C130.278 12.4643 130.171 12.0357 127.981 12.7143L127.73 11.9286L133.257 10.1429L133.76 10.6072V24.5C133.76 26.6072 134.406 27.6072 135.77 27.6072C137.205 27.6072 138.641 26.3929 139.789 24.8572V14.7857C139.789 12.4643 139.718 12.0357 137.492 12.7143L137.241 11.9286L142.804 10.1429L143.271 10.6072V25.1786C143.271 27.5715 143.343 28.0358 145.568 27.2143L145.891 28.0358L140.579 30.0001Z" fill="black"/>
<path d="M156.082 21.4286H157.087C157.087 27 155.974 30.0001 152.457 30.0001C149.658 30.0001 148.186 28.3215 148.186 23.3215V11.9643H145.674V10.6429C148.294 10.5715 149.945 8.64289 150.304 5.28574H151.596V10.5H155.903V11.9643H151.667V22.3929C151.667 25.5715 151.99 27.6786 153.677 27.6786C155.292 27.6786 156.082 25.6786 156.082 21.4286Z" fill="black"/>
<path d="M163.473 0.5V25.75C163.473 28.0357 163.796 28.5714 165.985 28.5714V29.4286H157.443V28.5714C159.633 28.5714 159.992 28.0357 159.992 25.75V5.10714C159.992 2.82143 159.991 2.35714 157.838 3.42857L157.479 2.64286L162.935 0L163.473 0.5Z" fill="black"/>
<path d="M179.048 21.7857H179.909C179.155 27.5357 176.715 30 173.341 30C169.285 30 166.737 26.1786 166.737 20.2857C166.737 14.6429 169.25 9.85714 173.521 9.85714C177.72 9.85714 179.694 13.7857 179.694 19H170.219V19.0714C170.219 23.9286 171.726 27.3571 174.705 27.3571C176.32 27.3571 178.186 26.1071 179.048 21.7857ZM173.521 11.3571C171.367 11.3571 170.47 13.9643 170.255 17.5357H176.248C176.248 14.1071 175.638 11.3571 173.521 11.3571Z" fill="black"/>
<path d="M191.728 9.85714C192.984 9.85714 193.666 10.5714 193.666 11.75C193.666 13.1429 192.841 14.0357 191.908 14.0357C191.262 14.0357 190.974 13.7857 190.508 13.2857C190.041 12.8214 189.862 12.6786 189.431 12.6786C188.606 12.6786 187.637 13.8571 186.883 16.0357V25.5357C186.883 27.9643 187.421 28.5357 190.687 28.5357V29.4286H180.997V28.5714C183.079 28.5714 183.437 28.0357 183.437 25.75V14.75C183.437 12.3571 183.437 11.8571 181.284 12.75L180.925 11.9286L183.796 10.7857L186.237 9.78572L186.883 10.3214V13.75H186.991C187.996 11.8571 189.754 9.85714 191.728 9.85714Z" fill="black"/>
<path d="M25.7188 8.88022L42.4962 0.265686C44.106 -0.560864 46 0.641224 46 2.48944V27.5106C46 29.3588 44.106 30.5609 42.4962 29.7343L25.7188 21.1198L28.9469 19.4623C32.5221 17.6265 32.5222 12.3735 28.9469 10.5377L25.7188 8.88022Z" fill="black"/>
<path d="M27.869 17.2237L3.50379 29.7343C1.89403 30.5609 0 29.3588 0 27.5106V2.48943C0 0.641214 1.89403 -0.560854 3.50377 0.265686L27.869 12.7763C29.6535 13.6925 29.6535 16.3075 27.869 17.2237Z" fill="black"/>
</svg>
